<svg width="319" height="169" viewBox="0 0 319 169" fill="none" xmlns="http://www.w3.org/2000/svg">
<rect x="5" y="5" width="309" height="159" fill="#FAA042" stroke="black" stroke-width="10"/>
<path d="M32.476 73.4442C33.9944 73.4442 35.3302 73.6652 36.4834 74.1073C37.6558 74.5494 38.7033 75.2124 39.6259 76.0966L37.233 78.9219C35.8491 77.8264 34.398 77.2786 32.8796 77.2786C32.0916 77.2786 31.4862 77.4324 31.0634 77.7399C30.6597 78.0282 30.4579 78.4414 30.4579 78.9796C30.4579 79.364 30.5636 79.6811 30.7751 79.931C30.9865 80.1808 31.342 80.4211 31.8418 80.6517C32.3415 80.8823 33.1295 81.1706 34.2058 81.5166C36.2624 82.1701 37.7615 82.9965 38.7033 83.996C39.6643 84.9762 40.1448 86.3408 40.1448 88.0898C40.1448 89.3584 39.8181 90.4827 39.1646 91.463C38.5111 92.424 37.5597 93.1735 36.3104 93.7117C35.0803 94.2499 33.6292 94.5189 31.9571 94.5189C28.7666 94.5189 26.1623 93.5483 24.1442 91.6071L26.7677 88.6953C28.3629 90.0022 30.0255 90.6557 31.7553 90.6557C32.6586 90.6557 33.3601 90.4635 33.8599 90.0791C34.3596 89.6755 34.6094 89.1469 34.6094 88.4935C34.6094 88.0322 34.5133 87.6574 34.3211 87.3691C34.1289 87.0616 33.783 86.7925 33.2833 86.5619C32.8028 86.312 32.0916 86.0429 31.1498 85.7546C28.8819 85.0435 27.2866 84.1882 26.3641 83.1887C25.4415 82.1893 24.9802 80.9304 24.9802 79.412C24.9802 78.2204 25.2974 77.1729 25.9316 76.2695C26.5851 75.3662 27.4788 74.6743 28.6128 74.1938C29.766 73.6941 31.0537 73.4442 32.476 73.4442ZM50.67 73.4442C53.5722 73.4442 55.8306 74.3668 57.4451 76.2119C59.0595 78.057 59.8668 80.6421 59.8668 83.9672C59.8668 86.139 59.5016 88.0226 58.7712 89.6178C58.0601 91.1939 57.0126 92.4047 55.6288 93.2504C54.2449 94.0961 52.592 94.5189 50.67 94.5189C47.7678 94.5189 45.5094 93.5964 43.895 91.7513C42.2997 89.9061 41.5021 87.3114 41.5021 83.9672C41.5021 81.7953 41.8576 79.9213 42.5688 78.3453C43.2991 76.7693 44.3466 75.5584 45.7112 74.7127C47.0951 73.867 48.748 73.4442 50.67 73.4442ZM50.67 77.2786C49.4207 77.2786 48.4981 77.7975 47.9023 78.8354C47.3257 79.8733 47.0374 81.5839 47.0374 83.9672C47.0374 86.3504 47.3353 88.0706 47.9312 89.1277C48.527 90.1656 49.4399 90.6845 50.67 90.6845C51.9385 90.6845 52.8611 90.1656 53.4377 89.1277C54.0143 88.0898 54.3026 86.3697 54.3026 83.9672C54.3026 81.5839 54.0143 79.8733 53.4377 78.8354C52.8611 77.7975 51.9385 77.2786 50.67 77.2786ZM82.4303 94H77.1832L76.9238 86.533L76.8949 85.2933C76.8565 84.1401 76.8373 83.2656 76.8373 82.6698C76.8373 81.2283 76.8949 79.7868 77.0103 78.3453L74.2714 91.9242H69.2262L66.3143 78.3453C66.4873 80.594 66.5738 82.5737 66.5738 84.2843C66.5738 85.2645 66.5642 86.0141 66.545 86.533L66.3143 94H61.0673L62.5376 73.9631H69.1685L71.8497 87.2538L74.2714 73.9631H80.9311L82.4303 94ZM97.3949 73.9631L96.8471 77.7399H90.0144V82.0067H95.9822V85.6681H90.0144V90.2233H97.3084V94H84.6808V73.9631H97.3949ZM115.384 73.4442C118.056 73.4442 120.352 74.2899 122.274 75.9813L119.651 78.7201C118.921 78.2012 118.258 77.8264 117.662 77.5957C117.085 77.3459 116.422 77.2209 115.672 77.2209C114.231 77.2209 113.097 77.7783 112.27 78.8931C111.463 80.0078 111.06 81.7088 111.06 83.996C111.06 85.6681 111.194 86.9943 111.463 87.9745C111.732 88.9355 112.136 89.6274 112.674 90.0503C113.231 90.4731 113.943 90.6845 114.808 90.6845C115.672 90.6845 116.46 90.502 117.172 90.1368V86.0141H114.894L114.375 82.3527H122.332V92.3279C121.294 93.0198 120.122 93.5579 118.815 93.9423C117.508 94.3267 116.22 94.5189 114.952 94.5189C108.686 94.5189 105.553 91.0017 105.553 83.9672C105.553 81.7761 105.976 79.8925 106.822 78.3165C107.687 76.7212 108.859 75.5104 110.339 74.6839C111.819 73.8574 113.501 73.4442 115.384 73.4442ZM137.768 73.9631L137.22 77.7399H130.388V82.0067H136.355V85.6681H130.388V90.2233H137.682V94H125.054V73.9631H137.768ZM155.972 94H149.255L144.181 78.9219L144.268 79.5273C144.46 80.8535 144.604 82.1028 144.7 83.2752C144.815 84.4284 144.873 85.745 144.873 87.2249V94H140.145V73.9631H146.718L151.965 89.0989C151.734 87.6574 151.552 86.36 151.417 85.2068C151.302 84.0536 151.244 82.7275 151.244 81.2283V73.9631H155.972V94ZM171.807 73.9631L171.259 77.7399H164.426V82.0067H170.394V85.6681H164.426V90.2233H171.72V94H159.093V73.9631H171.807ZM180.987 86.6195H179.517V94H174.183V73.9631H181.131C183.957 73.9631 186.061 74.4725 187.445 75.4911C188.848 76.5098 189.55 78.0762 189.55 80.1904C189.55 81.4589 189.252 82.516 188.656 83.3617C188.079 84.2074 187.147 84.9666 185.859 85.6393L190.847 94H184.908L180.987 86.6195ZM179.517 82.9869H181.304C183.149 82.9869 184.072 82.0548 184.072 80.1904C184.072 79.3255 183.813 78.6913 183.294 78.2876C182.794 77.884 182.035 77.6822 181.016 77.6822H179.517V82.9869ZM197.395 73.9631V94H192.061V73.9631H197.395ZM209.041 73.4442C210.31 73.4442 211.453 73.6364 212.472 74.0208C213.491 74.4052 214.442 74.9722 215.326 75.7218L212.818 78.6913C212.222 78.2492 211.646 77.9129 211.088 77.6822C210.531 77.4516 209.935 77.3363 209.301 77.3363C208.032 77.3363 207.042 77.884 206.331 78.9796C205.62 80.0751 205.265 81.728 205.265 83.9383C205.265 86.1486 205.62 87.7919 206.331 88.8683C207.062 89.9446 208.071 90.4827 209.358 90.4827C210.05 90.4827 210.685 90.3482 211.261 90.0791C211.857 89.7908 212.501 89.3776 213.193 88.8394L215.557 91.8377C214.769 92.6258 213.817 93.2696 212.703 93.7694C211.607 94.2691 210.416 94.5189 209.128 94.5189C207.225 94.5189 205.562 94.1153 204.14 93.3081C202.737 92.4816 201.651 91.2804 200.882 89.7043C200.114 88.1091 199.729 86.1871 199.729 83.9383C199.729 81.7472 200.123 79.8637 200.911 78.2876C201.699 76.7116 202.795 75.5104 204.198 74.6839C205.601 73.8574 207.215 73.4442 209.041 73.4442ZM229.097 73.9631V89.8485H236.794L236.218 94H223.763V73.9631H229.097ZM245.864 73.4442C248.766 73.4442 251.024 74.3668 252.639 76.2119C254.253 78.057 255.061 80.6421 255.061 83.9672C255.061 86.139 254.695 88.0226 253.965 89.6178C253.254 91.1939 252.206 92.4047 250.822 93.2504C249.439 94.0961 247.786 94.5189 245.864 94.5189C242.962 94.5189 240.703 93.5964 239.089 91.7513C237.493 89.9061 236.696 87.3114 236.696 83.9672C236.696 81.7953 237.051 79.9213 237.763 78.3453C238.493 76.7693 239.54 75.5584 240.905 74.7127C242.289 73.867 243.942 73.4442 245.864 73.4442ZM245.864 77.2786C244.614 77.2786 243.692 77.7975 243.096 78.8354C242.519 79.8733 242.231 81.5839 242.231 83.9672C242.231 86.3504 242.529 88.0706 243.125 89.1277C243.721 90.1656 244.634 90.6845 245.864 90.6845C247.132 90.6845 248.055 90.1656 248.631 89.1277C249.208 88.0898 249.496 86.3697 249.496 83.9672C249.496 81.5839 249.208 79.8733 248.631 78.8354C248.055 77.7975 247.132 77.2786 245.864 77.2786ZM266.432 73.4442C269.104 73.4442 271.4 74.2899 273.322 75.9813L270.699 78.7201C269.968 78.2012 269.305 77.8264 268.709 77.5957C268.133 77.3459 267.47 77.2209 266.72 77.2209C265.279 77.2209 264.145 77.7783 263.318 78.8931C262.511 80.0078 262.107 81.7088 262.107 83.996C262.107 85.6681 262.242 86.9943 262.511 87.9745C262.78 88.9355 263.184 89.6274 263.722 90.0503C264.279 90.4731 264.99 90.6845 265.855 90.6845C266.72 90.6845 267.508 90.502 268.219 90.1368V86.0141H265.942L265.423 82.3527H273.38V92.3279C272.342 93.0198 271.17 93.5579 269.863 93.9423C268.556 94.3267 267.268 94.5189 265.999 94.5189C259.734 94.5189 256.601 91.0017 256.601 83.9672C256.601 81.7761 257.024 79.8925 257.869 78.3165C258.734 76.7212 259.907 75.5104 261.387 74.6839C262.867 73.8574 264.548 73.4442 266.432 73.4442ZM284.491 73.4442C287.394 73.4442 289.652 74.3668 291.266 76.2119C292.881 78.057 293.688 80.6421 293.688 83.9672C293.688 86.139 293.323 88.0226 292.593 89.6178C291.882 91.1939 290.834 92.4047 289.45 93.2504C288.066 94.0961 286.413 94.5189 284.491 94.5189C281.589 94.5189 279.331 93.5964 277.716 91.7513C276.121 89.9061 275.323 87.3114 275.323 83.9672C275.323 81.7953 275.679 79.9213 276.39 78.3453C277.121 76.7693 278.168 75.5584 279.533 74.7127C280.917 73.867 282.569 73.4442 284.491 73.4442ZM284.491 77.2786C283.242 77.2786 282.32 77.7975 281.724 78.8354C281.147 79.8733 280.859 81.5839 280.859 83.9672C280.859 86.3504 281.157 88.0706 281.753 89.1277C282.348 90.1656 283.261 90.6845 284.491 90.6845C285.76 90.6845 286.683 90.1656 287.259 89.1277C287.836 88.0898 288.124 86.3697 288.124 83.9672C288.124 81.5839 287.836 79.8733 287.259 78.8354C286.683 77.7975 285.76 77.2786 284.491 77.2786Z" fill="#070D1F"/>
</svg>
